<?xml version="1.0" encoding="utf-8"?>
<!-- Generator: Adobe Illustrator 25.2.0, SVG Export Plug-In . SVG Version: 6.00 Build 0)  -->
<svg version="1.1" id="Layer_1" xmlns="http://www.w3.org/2000/svg" xmlns:xlink="http://www.w3.org/1999/xlink" x="0px" y="0px"
	 viewBox="0 0 100 30" style="enable-background:new 0 0 100 30;" xml:space="preserve">
<style type="text/css">
	.st0{fill:#9D9D9C;}
</style>
<path class="st0" d="M49.19,8.21h-3.63v14.72h3.23v-9.71h0.2l3.43,5.6h1.73l3.43-5.6h0.2v9.71h3.25V8.21h-3.56l-4.11,6.68
	L49.19,8.21z"/>
<path class="st0" d="M67.78,8.21H64.5v14.72h3.27v-6.28h1.64l4.51,6.28h4.27l-6.04-7.85l5.51-6.88h-4.09l-4.18,5.43l-1.61,0.18V8.21
	z"/>
<path class="st0" d="M92.35,8.21H80.58v14.72h6.7c0.84,0,1.61-0.11,2.32-0.31c0.71-0.22,1.33-0.53,1.84-0.92
	c0.51-0.42,0.91-0.92,1.22-1.49c0.27-0.62,0.42-1.27,0.42-2.04c0-0.79-0.15-1.47-0.42-2.09c-0.31-0.57-0.71-1.08-1.19-1.45
	c-0.53-0.4-1.13-0.68-1.86-0.88c-0.71-0.2-1.48-0.29-2.32-0.29h-3.41v-2.29h5.58L92.35,8.21z M83.87,19.99v-3.65h3.49
	c0.75,0,1.33,0.15,1.75,0.48c0.42,0.31,0.62,0.75,0.62,1.34c0,0.55-0.2,0.99-0.62,1.34c-0.4,0.31-1.02,0.48-1.84,0.48H83.87z"/>
<path class="st0" d="M25.23,8.23l-7.35,7.34l-3.67-3.67l3.68-3.68h-7.28l-0.07-0.01L6.93,11.9l11.04,11.03l9.42-9.5h5.65l5.2-5.21
	H25.23z"/>
<path class="st0" d="M19.48,22.78l1.05-1.05l7.27-7.27h10.44l-5.21,5.2h-3.07l-3.1,3.11H19.48z"/>
</svg>
