<?xml version="1.0" encoding="utf-8"?>
<!-- Generator: Adobe Illustrator 25.2.0, SVG Export Plug-In . SVG Version: 6.00 Build 0)  -->
<svg version="1.1" id="Layer_1" xmlns="http://www.w3.org/2000/svg" xmlns:xlink="http://www.w3.org/1999/xlink" x="0px" y="0px"
	 viewBox="0 0 100 30" style="enable-background:new 0 0 100 30;" xml:space="preserve">
<style type="text/css">
	.st0{fill:#9C9C9B;}
</style>
<g>
	<path class="st0" d="M5.04,21.53V7.06h2.28c1.32,0,2.29,0.09,2.9,0.26c0.87,0.23,1.56,0.66,2.07,1.28
		c0.51,0.62,0.77,1.36,0.77,2.21c0,0.55-0.12,1.05-0.35,1.5c-0.23,0.45-0.61,0.87-1.14,1.27c0.88,0.41,1.52,0.93,1.93,1.55
		c0.41,0.62,0.61,1.35,0.61,2.2c0,0.81-0.21,1.55-0.63,2.22c-0.42,0.67-0.96,1.17-1.63,1.5c-0.66,0.33-1.58,0.5-2.75,0.5H5.04z
		 M7.79,9.68v3.05h0.6c0.67,0,1.17-0.14,1.5-0.42c0.33-0.28,0.49-0.67,0.49-1.15c0-0.45-0.15-0.81-0.46-1.08
		c-0.31-0.27-0.78-0.4-1.41-0.4H7.79z M7.79,15.2v3.71h0.69c1.14,0,1.92-0.14,2.31-0.43c0.4-0.29,0.6-0.71,0.6-1.26
		c0-0.62-0.23-1.12-0.7-1.48c-0.47-0.36-1.24-0.54-2.33-0.54H7.79z"/>
	<path class="st0" d="M15.43,10.83h2.69v4.01l3.7-4.01h3.28l-4.77,5.22l4.83,5.49H21.6l-3.19-3.78l-0.28,0.34v3.45h-2.69V10.83z"/>
	<path class="st0" d="M26.08,10.83h2.75l2.78,6.72l3.07-6.72h2.75l-6.71,14.63h-2.78l2.2-4.72L26.08,10.83z"/>
	<path class="st0" d="M49.1,12.99l-2.24,1.23c-0.42-0.44-0.84-0.74-1.25-0.92c-0.41-0.17-0.89-0.26-1.44-0.26
		c-1,0-1.82,0.3-2.44,0.9c-0.62,0.6-0.93,1.37-0.93,2.3c0,0.91,0.3,1.65,0.9,2.23c0.6,0.58,1.38,0.87,2.35,0.87
		c1.2,0,2.14-0.41,2.81-1.23l2.12,1.45c-1.15,1.49-2.77,2.24-4.86,2.24c-1.88,0-3.36-0.56-4.42-1.67c-1.07-1.12-1.6-2.42-1.6-3.92
		c0-1.04,0.26-1.99,0.78-2.86c0.52-0.87,1.24-1.56,2.17-2.06c0.93-0.5,1.97-0.75,3.12-0.75c1.06,0,2.02,0.21,2.86,0.63
		C47.87,11.61,48.57,12.21,49.1,12.99z"/>
	<path class="st0" d="M51.32,21.53V7.06h2.28c1.32,0,2.29,0.09,2.9,0.26c0.87,0.23,1.56,0.66,2.07,1.28
		c0.51,0.62,0.77,1.36,0.77,2.21c0,0.55-0.12,1.05-0.35,1.5c-0.23,0.45-0.61,0.87-1.14,1.27c0.88,0.41,1.52,0.93,1.93,1.55
		c0.41,0.62,0.61,1.35,0.61,2.2c0,0.81-0.21,1.55-0.63,2.22c-0.42,0.67-0.96,1.17-1.63,1.5c-0.66,0.33-1.58,0.5-2.75,0.5H51.32z
		 M54.07,9.68v3.05h0.6c0.67,0,1.17-0.14,1.5-0.42c0.33-0.28,0.49-0.67,0.49-1.15c0-0.45-0.15-0.81-0.46-1.08
		c-0.31-0.27-0.78-0.4-1.41-0.4H54.07z M54.07,15.2v3.71h0.69c1.14,0,1.92-0.14,2.31-0.43c0.4-0.29,0.6-0.71,0.6-1.26
		c0-0.62-0.23-1.12-0.7-1.48c-0.47-0.36-1.24-0.54-2.33-0.54H54.07z"/>
	<path class="st0" d="M63.7,21.53h-1.43V10.83h2.62v6.29l5.48-6.29h1.29v10.71h-2.62v-6.16L63.7,21.53z"/>
	<path class="st0" d="M84.14,21.53H81.4l-2.68-6.75l-2.73,6.75h-2.73l4.57-10.71h1.73L84.14,21.53z"/>
	<path class="st0" d="M96.21,21.53h-2.74l-2.68-6.75l-2.73,6.75h-2.73l4.57-10.71h1.73L96.21,21.53z"/>
</g>
</svg>
